<svg width="1291" height="309" viewBox="0 0 1291 309" fill="none" xmlns="http://www.w3.org/2000/svg">
<path fill-rule="evenodd" clip-rule="evenodd" d="M0 308.997H154.508C239.482 308.997 309.006 239.473 309.006 154.499V0.0012207H154.498C69.5232 0.0012207 0 69.5254 0 154.499L0 308.997Z" fill="white"/>
<path fill-rule="evenodd" clip-rule="evenodd" d="M34.5797 249.413V217.779H66.2141L34.5797 249.413ZM249.574 34.4181H154.3C111.393 34.4181 73.5716 57.2981 52.4281 91.4572H192.535L249.574 34.4181ZM100.793 183.2H34.5797V154.139C34.5797 144.468 35.7507 135.058 37.9418 126.036H157.956L100.793 183.2Z" fill="url(#paint0_radial_1_2)"/>
<path fill-rule="evenodd" clip-rule="evenodd" d="M58.8385 274.346H154.371C220.217 274.346 274.092 220.471 274.092 154.625V59.0925L58.8385 274.346Z" fill="url(#paint1_radial_1_2)"/>
<path d="M453.797 241.632H472.714C478.123 241.672 482.034 245.654 482.066 250.831L482.271 263.853H444L444.187 277.732H496.576L496.155 248.441C496.037 236.713 487.277 227.792 474.921 227.733H453.615L453.797 241.632ZM501.467 204.755L502.59 277.733H516.707L515.584 204.755H501.467ZM531.289 219.45C535.311 219.45 539.109 216.185 539.775 212.103C540.421 208.14 537.688 204.875 533.666 204.875C529.643 204.875 525.845 208.14 525.199 212.103C524.533 216.185 527.266 219.45 531.289 219.45ZM556.723 263.854L540.266 263.794C540.338 262.619 540.427 261.464 540.379 260.29L539.853 227.734H526.034L526.549 259.992C526.712 271.083 520.735 281.238 512.827 288.706L520.828 299.717C526.133 295.754 534.437 285.619 538.339 273.533L540.352 277.674L556.909 277.734L556.722 263.855L556.723 263.854ZM533.396 263.794L540.233 277.673L576.025 277.733L575.839 263.854L533.396 263.794ZM560.297 263.794L567.134 277.673L602.927 277.733L602.74 263.854L560.297 263.794ZM587.199 263.794L594.036 277.673L629.828 277.733L629.642 263.854L587.199 263.794ZM614.1 263.794L620.937 277.673L656.73 277.733L656.543 263.854L614.1 263.794ZM641.002 263.794L647.839 277.673L683.631 277.733L683.445 263.854L641.002 263.794ZM667.903 263.794L674.74 277.673L710.533 277.733L710.346 263.854L667.903 263.794ZM694.805 263.794L701.642 277.673L737.434 277.733L737.247 263.854L694.805 263.794ZM721.706 263.794L728.543 277.673L764.336 277.733L764.149 263.854L721.706 263.794ZM748.607 263.794L755.444 277.673L791.237 277.733L791.05 263.854L748.607 263.794ZM803.742 277.733L802.974 227.734H789.075L789.687 263.794H777.959L784.795 277.673H789.912L789.903 277.733H803.742ZM798.617 294.877C799.686 294.061 800.621 292.966 801.23 291.671C803.132 287.947 801.696 283.806 798.124 282.511C794.528 281.236 790.046 283.327 788.161 287.071C786.309 290.855 787.525 294.876 790.928 296.231C789.859 297.047 788.934 298.082 788.315 299.317C786.403 303.22 787.759 307.361 791.421 308.596C794.997 309.871 799.47 307.84 801.403 303.916C803.206 300.312 801.931 296.29 798.617 294.876V294.877ZM820.003 241.632H838.919C844.329 241.672 848.239 245.654 848.271 250.831L848.477 263.853H810.206L810.392 277.732H862.782L862.361 248.441C862.243 236.713 853.483 227.792 841.127 227.733H819.82L820.003 241.632ZM978.612 204.575C982.635 204.575 986.432 201.31 987.098 197.228C987.744 193.265 985.011 190 980.988 190C976.966 190 973.168 193.265 972.522 197.228C971.856 201.31 974.59 204.575 978.611 204.575H978.612ZM969.761 219.17C972.609 219.17 975.384 217.538 976.958 215.089C977.783 217.479 979.995 219.052 982.783 219.052C986.805 219.052 990.603 215.786 991.269 211.704C991.919 207.721 989.186 204.456 985.162 204.456C982.315 204.456 979.54 206.089 977.976 208.479C977.121 206.149 974.929 204.576 972.141 204.576C968.118 204.576 964.321 207.841 963.674 211.804C963.006 215.906 965.739 219.171 969.761 219.171V219.17ZM982.402 236.773L982.715 263.794H977.358L976.977 227.793L963.207 236.773L963.539 263.794H957.287C957.435 263.257 957.529 262.679 957.613 262.162C957.937 260.171 958.079 258.199 958.056 256.268L957.692 227.734L943.952 236.774L943.997 258.717C944.054 259.832 943.927 260.987 943.735 262.162C943.65 262.679 943.556 263.257 943.409 263.794H943.05L943.284 264.193C940.632 274.348 930.765 282.233 920.39 282.233C909.299 282.233 901.786 273.233 903.592 262.162C905.4 251.071 915.845 242.09 926.936 242.09C928.629 242.09 930.214 242.389 931.651 242.847L931.4 228.272C930.652 228.212 929.956 228.212 929.198 228.212C910.461 228.212 892.767 243.424 889.712 262.162C886.66 280.879 899.389 296.112 918.126 296.112C931.249 296.112 943.836 288.645 951.29 277.733H996.729L996.18 227.734L982.401 236.774L982.402 236.773ZM1004.41 204.754L1005.53 277.732H1019.65L1018.53 204.754H1004.41ZM1060.76 263.853L1044.32 263.793C1044.39 262.618 1044.46 261.463 1044.44 260.289L1043.91 227.733H1030.07L1030.65 259.991C1030.83 271.082 1024.79 281.237 1016.86 288.705L1024.86 299.716C1030.19 295.753 1038.49 285.618 1042.38 273.532L1044.39 277.673L1060.95 277.733L1060.76 263.854V263.853ZM1037.45 263.793L1044.29 277.672L1080.08 277.732L1079.9 263.853L1037.45 263.793ZM1064.35 263.793L1071.19 277.672L1106.98 277.732L1106.8 263.853L1064.35 263.793ZM1091.26 263.793L1098.09 277.672L1133.89 277.732L1133.7 263.853L1091.26 263.793ZM1118.16 263.793L1124.99 277.672L1160.79 277.732L1160.6 263.853L1118.16 263.793ZM1145.06 263.793L1151.9 277.672L1187.69 277.732L1187.5 263.853L1145.06 263.793ZM1171.96 263.793L1178.8 277.672L1214.59 277.732L1214.4 263.853L1171.96 263.793ZM1198.86 263.793L1205.7 277.672L1241.49 277.732L1241.3 263.853L1198.86 263.793ZM1263.52 219.329C1267.54 219.329 1271.34 216.064 1272 211.982C1272.65 208.019 1269.92 204.754 1265.9 204.754C1261.87 204.754 1258.08 208.019 1257.43 211.982C1256.76 216.064 1259.5 219.329 1263.52 219.329ZM1290.54 251.427C1292.9 236.951 1283.09 225.223 1268.51 225.223C1254.04 225.223 1240.4 236.951 1238.03 251.427C1237.3 255.907 1237.73 260.109 1239.12 263.792H1228.79L1235.57 277.671L1259.65 277.731C1259.77 277.731 1259.83 277.731 1259.95 277.731H1260.07H1260.23C1274.73 277.552 1288.18 265.884 1290.54 251.427ZM1262.18 264.071C1261.42 264.071 1260.71 264.031 1260.03 263.911L1260.04 263.851H1259.82C1254.17 262.736 1250.63 257.599 1251.62 251.486C1252.77 244.477 1259.34 238.822 1266.29 238.822C1273.28 238.822 1277.96 244.477 1276.81 251.486C1275.68 258.415 1269.17 264.071 1262.18 264.071Z" fill="#F89E2F"/>
<path fill-rule="evenodd" clip-rule="evenodd" d="M678.012 2.49881H749.679C751.901 2.49881 753.012 3.60984 753.012 5.8319V27.9955C753.012 30.3285 751.901 31.4954 749.679 31.4954H707.352V54.1586H743.346C745.457 54.1586 746.512 55.2696 746.512 57.4917V76.9886C746.512 79.3216 745.457 80.4886 743.346 80.4886H707.352V104.318H750.845C752.955 104.318 754.011 105.429 754.011 107.651V129.814C754.011 132.147 752.955 133.314 750.845 133.314H675.856C673.523 133.314 672.356 132.203 672.356 129.981V31.4974V17.8824V8.15586C672.356 5.04159 674.896 2.50181 678.01 2.50181L678.012 2.49881ZM1201.23 96.0779C1201.27 95.5574 1201.49 95.0259 1201.9 94.4853L1247.89 32.4956H1196.9C1194.56 32.4956 1193.4 31.3845 1193.4 29.1625V5.8329C1193.4 3.61084 1194.56 2.49981 1196.9 2.49981H1287.38C1289.72 2.49981 1290.88 3.61084 1290.88 5.8329V26.6627C1290.88 27.6628 1290.77 28.4681 1290.55 29.0786C1290.33 29.689 1289.94 30.4394 1289.38 31.3286L1283.04 39.7342C1283.01 40.2548 1282.79 40.7863 1282.38 41.3268L1236.39 103.317H1287.38C1289.72 103.317 1290.88 104.428 1290.88 106.65V129.979C1290.88 132.201 1289.72 133.312 1287.38 133.312H1196.9C1194.56 133.312 1193.4 132.201 1193.4 129.979V109.15C1193.4 108.149 1193.51 107.344 1193.73 106.734C1193.95 106.123 1194.34 105.373 1194.9 104.484L1201.23 96.0779H1201.23ZM447.5 133.312C445.167 133.312 444 132.201 444 129.979V33.162V29.3513V8.15486C444 5.04059 446.54 2.50081 449.654 2.50081H521.321C523.543 2.50081 524.654 3.61184 524.654 5.8339V29.663C524.654 31.996 523.543 33.163 521.321 33.163H478.994V61.3253H514.989C517.099 61.3253 518.155 62.4364 518.155 64.6584V85.8219C518.155 88.1549 517.099 89.3219 514.989 89.3219H478.994V129.815C478.994 132.148 477.939 133.315 475.828 133.315H447.5V133.312ZM612.004 49.159C612.004 43.1602 610.088 38.855 606.255 36.2443C602.422 33.6336 596.617 32.3287 588.841 32.3287H583.175V35.6618V65.9903C584.175 66.1012 585.148 66.1561 586.092 66.1561C587.036 66.1561 587.953 66.1561 588.841 66.1561C596.618 66.1561 602.422 64.8233 606.255 62.1566C610.088 59.4899 612.004 55.1577 612.004 49.158V49.159ZM549.014 32.3287V8.15486C549.014 5.04059 551.554 2.50081 554.668 2.50081H588.84C606.504 2.50081 620.224 6.33346 630 13.9998C639.777 21.665 644.664 32.3857 644.664 46.1616V49.4947C644.664 56.9382 643.304 63.6034 640.582 69.4912C637.86 75.3791 633.833 80.3787 628.501 84.4891L650.997 129.482C651.886 132.036 650.997 133.314 648.331 133.314H617.336C615.225 133.314 613.948 132.425 613.504 130.648L598.673 95.4865C595.451 95.8192 592.173 95.986 588.841 95.986C587.953 95.986 587.036 95.986 586.092 95.986C585.148 95.986 584.175 95.9301 583.175 95.8192V129.98C583.175 132.202 582.009 133.313 579.676 133.313H552.347C550.125 133.313 549.014 132.202 549.014 129.98V92.8298V65.9913V35.6628V32.3297V32.3287ZM819.366 80.1549C813.922 78.1556 808.812 76.1004 804.035 73.9893C799.258 71.8781 795.12 69.4063 791.621 66.5737C788.121 63.7402 785.344 60.3242 783.289 56.3247C781.234 52.3252 780.206 47.3815 780.206 41.4937C780.206 34.1611 781.372 27.8846 783.706 22.6632C786.039 17.4417 789.261 13.1645 793.371 9.8314C797.482 6.49831 802.397 4.02648 808.118 2.41589C813.839 0.805295 820.145 0 827.032 0C833.809 0 840.057 0.833271 845.778 2.49981C851.499 4.16636 856.416 6.61022 860.527 9.8324C864.637 13.0536 867.859 16.9702 870.192 21.5811C872.525 26.1911 873.692 31.4405 873.692 37.3283V37.9948C873.581 40.2168 872.47 41.3278 870.359 41.3278H843.197C840.975 41.3278 839.864 40.1619 839.864 37.8279V36.9946C839.864 34.4399 838.837 32.3007 836.781 30.5792C834.726 28.8578 831.699 27.9965 827.699 27.9965C819.7 27.9965 815.701 31.9401 815.701 39.8282C815.701 43.383 817.366 46.1606 820.7 48.1599C824.032 50.1591 829.366 52.4371 836.697 54.9919C842.808 57.103 848.251 59.3251 853.028 61.6571C857.805 63.99 861.832 66.6287 865.11 69.5721C868.387 72.5155 870.887 75.9326 872.609 79.8212C874.33 83.7088 875.192 88.2638 875.192 93.4852C875.192 100.817 873.942 107.121 871.442 112.399C868.942 117.676 865.526 122.063 861.193 125.563C856.861 129.063 851.722 131.646 845.778 133.312C839.836 134.978 833.419 135.812 826.531 135.812C819.754 135.812 813.45 134.979 807.618 133.312C801.785 131.646 796.702 129.202 792.37 125.98C788.038 122.759 784.621 118.842 782.121 114.231C779.621 109.621 778.371 104.372 778.371 98.4838V97.8174C778.482 95.5954 779.593 94.4843 781.705 94.4843H808.867C811.089 94.4843 812.2 95.6503 812.2 97.9843V98.9844C812.2 101.762 813.394 103.928 815.783 105.484C818.172 107.039 821.699 107.817 826.364 107.817C831.141 107.817 834.557 106.734 836.614 104.568C838.669 102.401 839.697 99.3741 839.697 95.4855C839.697 93.1525 839.03 91.1802 837.698 89.5696C836.364 87.959 834.698 86.5703 832.698 85.4043C830.699 84.2373 828.505 83.2661 826.116 82.4878C823.727 81.7095 821.478 80.9322 819.367 80.1549H819.366ZM935.378 129.814C935.378 132.147 934.212 133.314 931.879 133.314H904.55C902.328 133.314 901.217 132.147 901.217 129.814V5.66704C901.217 3.55689 902.328 2.50081 904.55 2.50081H931.879C934.212 2.50081 935.378 3.55689 935.378 5.66704V51.3271H972.039V5.66704C972.039 3.55689 973.15 2.50081 975.372 2.50081H1002.7C1005.03 2.50081 1006.2 3.55689 1006.2 5.66704V129.814C1006.2 132.147 1005.09 133.314 1002.87 133.314H975.372C973.15 133.314 972.039 132.147 972.039 129.814V83.8217H935.378V129.814ZM1115.71 2.50081C1123.38 2.50081 1130.54 3.30611 1137.21 4.9167C1143.88 6.52829 1149.68 9.22193 1154.62 12.9986C1159.57 16.7763 1163.48 21.8029 1166.37 28.0794C1169.26 34.3559 1170.71 42.1601 1170.71 51.4919V84.3202C1170.71 93.763 1169.26 101.623 1166.37 107.9C1163.48 114.176 1159.57 119.204 1154.62 122.98C1149.68 126.758 1143.88 129.424 1137.21 130.979C1130.55 132.535 1123.38 133.312 1115.71 133.312H1075.72C1073.39 133.312 1072.22 132.201 1072.22 129.979V86.6122V41.16V32.8283V21.0596V8.15486C1072.22 5.04059 1074.76 2.50081 1077.87 2.50081H1115.71ZM1106.38 41.162V102.986H1115.55C1122.1 102.986 1127.3 101.403 1131.13 98.236C1134.96 95.0698 1136.88 90.0432 1136.88 83.1553V52.6599C1136.88 45.772 1134.96 40.7454 1131.13 37.5791C1127.3 34.4129 1122.1 32.8293 1115.55 32.8293H1106.38V41.161V41.162Z" fill="#69B24C"/>
<defs>
<radialGradient id="paint0_radial_1_2" cx="0" cy="0" r="1" gradientUnits="userSpaceOnUse" gradientTransform="translate(-204.042 178.51) rotate(90) scale(1027.2 1027.2)">
<stop stop-color="#B2BF43"/>
<stop offset="0.721569" stop-color="#69B24C"/>
<stop offset="1" stop-color="#20A654"/>
</radialGradient>
<radialGradient id="paint1_radial_1_2" cx="0" cy="0" r="1" gradientUnits="userSpaceOnUse" gradientTransform="translate(302.123 -1.22482) rotate(103.663) scale(240.108 251.894)">
<stop stop-color="#FECD29"/>
<stop offset="0.8" stop-color="#F89C2F"/>
<stop offset="1" stop-color="#F26B35"/>
</radialGradient>
</defs>
</svg>
